<?xml version="1.0" encoding="UTF-8"?>
<svg version="1.1" xmlns="http://www.w3.org/2000/svg" width="64" height="64">
<path d="M0 0 C4.40884239 3.45202978 6.92943308 7.3435998 7.8984375 12.875 C8.27544638 19.70828591 6.19734071 23.6942705 1.8984375 28.875 C3.47625 28.75125 3.47625 28.75125 5.0859375 28.625 C9.49655413 28.91422076 10.82619585 29.80275835 13.8984375 32.875 C16.72636543 37.1168919 16.67966036 40.89373743 15.8984375 45.875 C14.21831103 48.99791165 12.11514076 51.26664837 8.8984375 52.875 C7.32215346 52.99024171 5.74120658 53.04447635 4.16088867 53.06787109 C3.17614059 53.08393402 2.19139252 53.09999695 1.17680359 53.11654663 C-3.32882031 53.16095795 -7.83429636 53.20205968 -12.34008789 53.22509766 C-14.71746608 53.24166249 -17.09479436 53.26895912 -19.47192383 53.30712891 C-22.89691037 53.36185255 -26.32072909 53.38376542 -29.74609375 53.3984375 C-30.80770218 53.42110687 -31.86931061 53.44377625 -32.96308899 53.46713257 C-41.18244813 53.44357054 -41.18244813 53.44357054 -44.2487793 50.40478516 C-44.86019775 49.56995605 -45.47161621 48.73512695 -46.1015625 47.875 C-46.4315625 47.545 -46.7615625 47.215 -47.1015625 46.875 C-47.76137909 41.78498634 -47.99501013 38.06626351 -44.8515625 33.875 C-42.1015625 31.875 -42.1015625 31.875 -39.95703125 31.015625 C-39.34472656 30.63921875 -38.73242188 30.2628125 -38.1015625 29.875 C-37.58557116 27.88160564 -37.58557116 27.88160564 -37.6640625 25.625 C-37.29589588 20.43719762 -35.99435875 18.33526334 -32.1015625 14.875 C-28.7890625 14 -28.7890625 14 -26.1015625 13.875 C-25.9365625 12.699375 -25.7715625 11.52375 -25.6015625 10.3125 C-24.27329957 4.90319733 -20.66111275 1.84300913 -16.1015625 -1.125 C-10.95358723 -2.95402115 -4.81533178 -2.57772408 0 0 Z " fill="#A3D4F6" transform="translate(47.1015625,11.125)"/>
<path d="M0 0 C4.40799949 3.45136981 6.93126442 7.34397892 7.8984375 12.875 C8.16906665 17.85626772 7.55451063 21.54036729 4.3359375 25.4375 C3.5315625 26.241875 2.7271875 27.04625 1.8984375 27.875 C0.6609375 26.6684375 0.6609375 26.6684375 -0.6015625 25.4375 C-3.16221375 23.26427589 -4.8208591 22.57165902 -8.1640625 22.375 C-13.00806553 21.7598885 -13.77795119 20.279675 -17.1015625 16.875 C-20.03291281 15.60806046 -23.01955542 14.70089732 -26.1015625 13.875 C-25.17724146 7.28921262 -23.25548629 4.4654421 -18.171875 0.22265625 C-12.84855196 -3.24252573 -5.53938076 -2.96531907 0 0 Z " fill="#FCD021" transform="translate(47.1015625,11.125)"/>
<path d="M0 0 C-0.55774272 3.23490776 -1.37211508 4.97855006 -4 7 C-4.99 7 -5.98 7 -7 7 C-6.22006468 2.47637516 -4.81844319 0 0 0 Z " fill="#FDCF21" transform="translate(59,5)"/>
<path d="M0 0 C3.23490776 0.55774272 4.97855006 1.37211508 7 4 C7 4.99 7 5.98 7 7 C3.76509224 6.44225728 2.02144994 5.62788492 0 3 C0 2.01 0 1.02 0 0 Z " fill="#FDD01F" transform="translate(17,5)"/>
<path d="M0 0 C1.65 0 3.3 0 5 0 C5.33 1.32 5.66 2.64 6 4 C4.02 4 2.04 4 0 4 C0 2.68 0 1.36 0 0 Z " fill="#FDD11E" transform="translate(58,24)"/>
<path d="M0 0 C1.32 0.33 2.64 0.66 4 1 C4 2.65 4 4.3 4 6 C2.68 6 1.36 6 0 6 C0 4.02 0 2.04 0 0 Z " fill="#FDCF1D" transform="translate(36,0)"/>
</svg>
